<svg width="25" height="26" viewBox="0 0 25 26" fill="none" xmlns="http://www.w3.org/2000/svg">
<g clip-path="url(#clip0_40_2207)">
<path d="M6.06946 8.66501H1.62444C1.1821 8.66501 0.823364 8.29202 0.823364 7.8319C0.823364 7.37177 1.18206 6.99878 1.62444 6.99878H6.06941C6.51174 6.99878 6.87048 7.37177 6.87048 7.8319C6.87048 8.29202 6.51179 8.66501 6.06946 8.66501Z" fill="black"/>
<path d="M15.8042 12.9999L10.4814 7.61365V1.64979C10.4814 0.925096 11.3227 0.560689 11.8173 1.07119L23.3756 12.9999L11.8173 24.9286C11.3227 25.4391 10.4814 25.0748 10.4814 24.35V18.3862L15.8042 12.9999Z" fill="#342B2B"/>
<path d="M23.9399 12.4087L12.3815 0.479883C12.0817 0.170473 11.6872 0 11.2708 0C10.3938 0 9.6804 0.740137 9.6804 1.64988V7.61373C9.6804 7.83864 9.76785 8.05396 9.92278 8.21082L14.6554 13L10.3717 17.335H1.62444C1.1821 17.335 0.823364 17.708 0.823364 18.1681C0.823364 18.6282 1.18206 19.0012 1.62444 19.0012H9.68035V24.3502C9.68035 25.2599 10.3938 26 11.2708 26C11.6872 26 12.0816 25.8296 12.3814 25.5202L23.9398 13.5913C24.0913 13.435 24.1765 13.222 24.1765 13C24.1766 12.778 24.0914 12.5651 23.9399 12.4087ZM11.2825 24.3068V18.7381L16.3628 13.5971C16.5178 13.4403 16.6052 13.225 16.6052 13C16.6052 12.7751 16.5177 12.5597 16.3628 12.4029L11.2825 7.26197L11.2828 1.69325L22.2385 13.0001L11.2825 24.3068Z" fill="black"/>
<path d="M10.9916 13.8332H3.36113C2.9188 13.8332 2.56006 13.4602 2.56006 13.0001C2.56006 12.54 2.91875 12.167 3.36113 12.167H10.9916C11.4339 12.167 11.7926 12.54 11.7926 13.0001C11.7926 13.4602 11.4339 13.8332 10.9916 13.8332Z" fill="black"/>
<g clip-path="url(#clip1_40_2207)">
<path d="M6.06946 8.66501H1.62444C1.1821 8.66501 0.823364 8.29202 0.823364 7.8319C0.823364 7.37177 1.18206 6.99878 1.62444 6.99878H6.06941C6.51174 6.99878 6.87048 7.37177 6.87048 7.8319C6.87048 8.29202 6.51179 8.66501 6.06946 8.66501Z" fill="black"/>
<path d="M15.8042 12.9999L10.4814 7.61365V1.64979C10.4814 0.925096 11.3227 0.560689 11.8173 1.07119L23.3756 12.9999L11.8173 24.9286C11.3227 25.4391 10.4814 25.0748 10.4814 24.35V18.3862L15.8042 12.9999Z" fill="#342B2B"/>
<path d="M23.9399 12.4087L12.3815 0.479883C12.0817 0.170473 11.6872 0 11.2708 0C10.3938 0 9.6804 0.740137 9.6804 1.64988V7.61373C9.6804 7.83864 9.76785 8.05396 9.92278 8.21082L14.6554 13L10.3717 17.335H1.62444C1.1821 17.335 0.823364 17.708 0.823364 18.1681C0.823364 18.6282 1.18206 19.0012 1.62444 19.0012H9.68035V24.3502C9.68035 25.2599 10.3938 26 11.2708 26C11.6872 26 12.0816 25.8296 12.3814 25.5202L23.9398 13.5913C24.0913 13.435 24.1765 13.222 24.1765 13C24.1766 12.778 24.0914 12.5651 23.9399 12.4087ZM11.2825 24.3068V18.7381L16.3628 13.5971C16.5178 13.4403 16.6052 13.225 16.6052 13C16.6052 12.7751 16.5177 12.5597 16.3628 12.4029L11.2825 7.26197L11.2828 1.69325L22.2385 13.0001L11.2825 24.3068Z" fill="black"/>
<path d="M10.9916 13.8332H3.36113C2.9188 13.8332 2.56006 13.4602 2.56006 13.0001C2.56006 12.54 2.91875 12.167 3.36113 12.167H10.9916C11.4339 12.167 11.7926 12.54 11.7926 13.0001C11.7926 13.4602 11.4339 13.8332 10.9916 13.8332Z" fill="black"/>
</g>
</g>
<defs>
<clipPath id="clip0_40_2207">
<rect width="25" height="26" fill="white"/>
</clipPath>
<clipPath id="clip1_40_2207">
<rect width="25" height="26" fill="white"/>
</clipPath>
</defs>
</svg>
